<svg width="304" height="149" viewBox="0 0 304 149" fill="none" xmlns="http://www.w3.org/2000/svg">
<g filter="url(#filter0_d)">
<rect width="244.938" height="48.9358" rx="2.09561" transform="matrix(1.01003 -0.135463 -0.00179119 0.980554 15.6436 38.948)" fill="#2DBACD"/>
</g>
<g filter="url(#filter1_d)">
<path d="M58.9213 40.4731L54.8205 74.961L43.4601 76.4846C42.4329 71.4098 41.5294 65.6056 40.7497 59.0721C40.3845 61.958 39.5314 67.9978 38.1902 77.1914L26.8946 78.7063L22.8963 45.3047L31.7297 44.12L32.6368 55.842L33.5662 67.1418C33.9082 61.1845 34.7575 53.3146 36.1141 43.5319L45.5739 42.2632C45.7016 43.2383 46.026 46.9261 46.5469 53.3266L47.5169 66.0883C48.0358 57.8154 48.8928 49.672 50.0878 41.6578L58.9213 40.4731ZM62.5047 39.9925L77.6663 37.9591L77.6539 44.7525L71.585 45.5665L71.5732 52.0034L77.2534 51.2416L77.2416 57.6996L71.5614 58.4614L71.5478 65.9258L78.2215 65.0307L78.2091 71.8242L62.4427 73.9387L62.5047 39.9925ZM91.7679 36.0678L91.7059 70.014L82.6133 71.2335L82.6753 37.2873L91.7679 36.0678ZM97.1872 35.341L106.258 34.1244C109.124 33.7401 111.29 33.6661 112.758 33.9025C114.24 34.1369 115.434 34.8573 116.338 36.0635C117.243 37.2558 117.693 39.3197 117.687 42.2551C117.684 44.2401 117.357 45.6674 116.708 46.537C116.073 47.4048 114.812 48.1748 112.925 48.8471C115.026 49.0265 116.45 49.6041 117.197 50.58C117.944 51.542 118.315 53.1272 118.311 55.3358L118.305 58.4809C118.301 60.7733 118.025 62.5084 117.475 63.686C116.941 64.8618 116.083 65.7315 114.901 66.2952C113.72 66.8589 111.3 67.386 107.643 67.8765L97.1252 69.2872L97.1872 35.341ZM106.269 39.9295L106.255 47.4777C106.644 47.4116 106.947 47.3641 107.163 47.3351C108.055 47.2154 108.624 46.9294 108.87 46.4772C109.116 46.0111 109.24 44.7716 109.244 42.7587C109.246 41.6964 109.146 40.969 108.945 40.5767C108.745 40.1704 108.479 39.9336 108.148 39.8662C107.831 39.7968 107.205 39.8179 106.269 39.9295ZM106.246 52.7615L106.228 62.2597C107.51 62.0459 108.324 61.7411 108.67 61.3453C109.031 60.9476 109.212 60.0638 109.215 58.6939L109.22 55.5278C109.223 54.0741 109.066 53.2147 108.75 52.9497C108.434 52.6846 107.599 52.6219 106.246 52.7615ZM123.405 31.8247L138.567 29.7913L138.554 36.5847L132.485 37.3987L132.474 43.8356L138.154 43.0738L138.142 49.5318L132.462 50.2936L132.448 57.758L139.122 56.8629L139.109 63.6564L123.343 65.7709L123.405 31.8247ZM163.877 26.3966L163.815 60.3429L155.846 61.4117L151.144 46.6141L151.116 62.0461L143.514 63.0657L143.576 29.1195L151.178 28.0999L156.247 42.7015L156.275 27.4163L163.877 26.3966ZM169.318 25.6669L184.718 23.6016L184.705 30.3951L178.399 31.2409L178.387 37.6779L184.002 36.9247L183.99 43.3827L178.375 44.1358L178.349 58.3937L169.256 59.6131L169.318 25.6669ZM204.413 20.9601L209.556 54.2083L200.247 55.4567L199.805 49.416L196.544 49.8534L195.993 56.0273L186.576 57.2903L191.26 22.7242L204.413 20.9601ZM199.557 43.4331C199.103 39.6509 198.651 34.9671 198.2 29.3817C197.267 35.9912 196.683 40.814 196.447 43.8503L199.557 43.4331ZM222.035 18.5967L221.985 45.7495L227.514 45.008L227.502 51.8014L212.88 53.7624L212.942 19.8162L222.035 18.5967ZM253.22 14.4142L247.987 30.4395L253.655 48.2938L244.26 49.5538L240.615 35.4949L240.588 50.0463L231.496 51.2657L231.558 17.3195L240.65 16.1001L240.626 29.2885L244.689 15.5584L253.22 14.4142Z" fill="#FFFEF0"/>
</g>
<g filter="url(#filter2_d)">
<rect width="162.661" height="24.8524" rx="1.532" transform="matrix(0.99893 -0.136974 -0.00853811 0.991163 17.2588 97.5412)" fill="#3D3D3D"/>
<path d="M25.3636 102.752L28.7898 102.282C29.7164 102.155 30.4269 102.129 30.9212 102.206C31.4209 102.281 31.7935 102.438 32.0389 102.677C32.2897 102.915 32.4565 103.223 32.5393 103.601C32.6275 103.973 32.668 104.566 32.6609 105.378L32.651 106.509C32.6437 107.337 32.5522 107.953 32.3765 108.356C32.2008 108.76 31.8804 109.095 31.4153 109.361C30.9556 109.627 30.3541 109.811 29.6107 109.913L28.6975 110.039L28.6517 115.266L25.2497 115.733L25.3636 102.752ZM28.7461 104.506L28.7171 107.81C28.814 107.802 28.8975 107.793 28.9675 107.783C29.28 107.74 29.4961 107.636 29.616 107.47C29.7412 107.298 29.806 106.971 29.8102 106.49L29.8195 105.424C29.8234 104.98 29.7559 104.701 29.617 104.587C29.4781 104.472 29.1878 104.446 28.7461 104.506ZM34.3325 101.521L36.7406 101.191C38.3459 100.97 39.4309 100.883 39.9955 100.928C40.5654 100.972 41.0259 101.224 41.377 101.683C41.7336 102.136 41.907 102.916 41.8973 104.022C41.8884 105.033 41.7559 105.729 41.4996 106.111C41.2434 106.493 40.7432 106.77 39.9992 106.942C40.6711 107.015 41.1217 107.175 41.3509 107.421C41.5801 107.667 41.7206 107.904 41.7724 108.132C41.8297 108.353 41.8537 108.988 41.8445 110.036L41.8145 113.46L38.6549 113.893L38.6928 109.58C38.6989 108.885 38.6461 108.462 38.5344 108.312C38.4281 108.161 38.1406 108.118 37.6719 108.182L37.6206 114.035L34.2186 114.502L34.3325 101.521ZM37.715 103.275L37.6897 106.162C38.0722 106.109 38.3393 106.022 38.491 105.899C38.6482 105.771 38.7293 105.421 38.7343 104.849L38.7405 104.135C38.7441 103.724 38.6711 103.464 38.5214 103.357C38.3771 103.248 38.1083 103.221 37.715 103.275ZM43.9156 100.206L49.5882 99.4269L49.5654 102.025L47.2947 102.336L47.2732 104.798L49.3984 104.506L49.3767 106.976L47.2515 107.268L47.2264 110.122L49.7234 109.779L49.7006 112.377L43.8017 113.187L43.9156 100.206ZM61.9591 97.7288L61.8452 110.71L58.8715 111.118L58.9484 102.354L57.6837 111.281L55.5746 111.571L54.3972 103.179L54.3221 111.743L51.3484 112.151L51.4623 99.1697L55.8663 98.5652C55.9887 99.3278 56.118 100.228 56.2542 101.267L56.6939 104.506L57.5228 98.3378L61.9591 97.7288ZM67.3887 96.9835L67.2748 109.965L63.8728 110.432L63.9867 97.4505L67.3887 96.9835ZM77.1495 95.6436L77.0734 104.319C77.0648 105.303 77.0264 105.999 76.9582 106.409C76.8901 106.814 76.6953 107.249 76.3737 107.715C76.0522 108.175 75.6292 108.551 75.1048 108.842C74.5857 109.127 73.9734 109.317 73.2676 109.414C72.4865 109.522 71.7981 109.488 71.2024 109.313C70.6066 109.139 70.1624 108.866 69.8698 108.495C69.5771 108.124 69.4058 107.715 69.3559 107.268C69.3061 106.816 69.2876 105.858 69.3004 104.393L69.3678 96.7118L72.7698 96.2448L72.6844 105.979C72.6794 106.545 72.7059 106.905 72.7637 107.057C72.827 107.203 72.9529 107.263 73.1415 107.237C73.3569 107.208 73.4951 107.103 73.5558 106.924C73.622 106.739 73.658 106.323 73.6636 105.676L73.7475 96.1106L77.1495 95.6436ZM89.6255 93.9311L89.5116 106.912L86.5379 107.32L86.6148 98.5567L85.35 107.484L83.241 107.773L82.0636 99.3817L81.9885 107.945L79.0148 108.353L79.1286 95.372L83.5326 94.7674C83.6551 95.5301 83.7844 96.4306 83.9205 97.4691L84.3602 100.708L85.1892 94.54L89.6255 93.9311ZM103.134 97.7307L99.7319 98.1977L99.7518 95.9366C99.7575 95.2791 99.7234 94.8754 99.6494 94.7254C99.5808 94.5693 99.4226 94.5082 99.1748 94.5422C98.8947 94.5807 98.716 94.704 98.6389 94.9121C98.5617 95.1202 98.5203 95.5531 98.5145 96.2105L98.4616 102.24C98.4561 102.871 98.4902 103.277 98.5639 103.459C98.6376 103.641 98.8065 103.714 99.0705 103.678C99.3237 103.643 99.4888 103.525 99.5659 103.322C99.6484 103.118 99.6928 102.661 99.699 101.95L99.7133 100.322L103.115 99.8555L103.111 100.361C103.099 101.702 102.994 102.667 102.795 103.255C102.601 103.842 102.174 104.392 101.513 104.904C100.858 105.416 100.05 105.738 99.0916 105.869C98.095 106.006 97.275 105.94 96.6317 105.671C95.9884 105.401 95.5644 104.966 95.3599 104.364C95.1554 103.756 95.0587 102.817 95.0698 101.544L95.1031 97.7519C95.1113 96.8165 95.1498 96.1118 95.2185 95.6379C95.2873 95.1586 95.4825 94.6807 95.8041 94.2041C96.1311 93.7268 96.5786 93.3263 97.1464 93.0028C97.7196 92.6732 98.3752 92.4577 99.1133 92.3564C100.115 92.2189 100.941 92.2978 101.589 92.5932C102.237 92.8885 102.662 93.3108 102.861 93.86C103.061 94.4039 103.155 95.2825 103.145 96.4959L103.134 97.7307ZM112.773 98.3456C112.761 99.6499 112.721 100.579 112.651 101.133C112.587 101.681 112.389 102.202 112.057 102.696C111.729 103.19 111.287 103.595 110.73 103.911C110.173 104.228 109.526 104.437 108.788 104.539C108.087 104.635 107.458 104.609 106.9 104.461C106.347 104.308 105.903 104.027 105.567 103.619C105.232 103.211 105.034 102.745 104.974 102.219C104.914 101.693 104.89 100.762 104.902 99.426L104.922 97.205C104.933 95.9007 104.971 94.9746 105.035 94.4266C105.104 93.8725 105.302 93.3487 105.63 92.8554C105.962 92.3612 106.407 91.9558 106.964 91.6391C107.521 91.3224 108.168 91.1134 108.906 91.0121C109.607 90.916 110.233 90.9447 110.786 91.0984C111.345 91.246 111.791 91.5237 112.127 91.9315C112.462 92.3392 112.66 92.806 112.72 93.3316C112.78 93.8573 112.804 94.7883 112.792 96.1246L112.773 98.3456ZM109.408 94.547C109.413 93.943 109.382 93.5629 109.313 93.4068C109.25 93.2446 109.113 93.178 108.903 93.2068C108.726 93.2312 108.588 93.3196 108.489 93.4719C108.397 93.6181 108.347 94.0253 108.341 94.6934L108.288 100.755C108.282 101.509 108.307 101.97 108.365 102.138C108.428 102.306 108.573 102.374 108.799 102.343C109.031 102.311 109.18 102.189 109.246 101.977C109.313 101.765 109.349 101.277 109.356 100.512L109.408 94.547ZM122.511 89.4169L122.435 98.0924C122.427 99.0759 122.388 99.7726 122.32 100.182C122.252 100.587 122.057 101.022 121.736 101.488C121.414 101.948 120.991 102.324 120.467 102.615C119.948 102.9 119.335 103.091 118.629 103.188C117.848 103.295 117.16 103.261 116.564 103.087C115.968 102.912 115.524 102.639 115.232 102.269C114.939 101.898 114.768 101.489 114.718 101.042C114.668 100.589 114.649 99.6309 114.662 98.1663L114.73 90.485L118.132 90.0181L118.046 99.7519C118.041 100.319 118.068 100.678 118.125 100.83C118.189 100.976 118.315 101.036 118.503 101.011C118.719 100.981 118.857 100.877 118.918 100.697C118.984 100.512 119.02 100.096 119.025 99.4493L119.109 89.8838L122.511 89.4169ZM124.49 89.1452L126.898 88.8146C128.504 88.5943 129.589 88.5067 130.153 88.552C130.723 88.5966 131.184 88.8484 131.535 89.3074C131.891 89.7603 132.065 90.54 132.055 91.6465C132.046 92.6567 131.914 93.353 131.658 93.7352C131.401 94.1174 130.901 94.3943 130.157 94.5658C130.829 94.6391 131.28 94.7988 131.509 95.0449C131.738 95.2911 131.879 95.5281 131.93 95.7559C131.988 95.9776 132.012 96.6123 132.002 97.66L131.972 101.084L128.813 101.517L128.851 97.2037C128.857 96.5088 128.804 96.0863 128.692 95.9361C128.586 95.7852 128.299 95.7419 127.83 95.8062L127.779 101.659L124.377 102.126L124.49 89.1452ZM127.873 90.8992L127.848 93.7857C128.23 93.7332 128.497 93.6458 128.649 93.5235C128.806 93.3952 128.887 93.045 128.892 92.4731L128.898 91.7595C128.902 91.3479 128.829 91.0883 128.679 90.9807C128.535 90.8724 128.266 90.8452 127.873 90.8992ZM141.247 90.7691L138.087 91.2028L138.096 90.2407C138.1 89.7917 138.062 89.5112 137.982 89.3994C137.902 89.2875 137.768 89.2445 137.58 89.2704C137.375 89.2985 137.218 89.4028 137.109 89.5833C137.005 89.7631 136.952 90.0213 136.949 90.3581C136.945 90.7911 137.001 91.109 137.118 91.3119C137.229 91.5155 137.547 91.7361 138.073 91.9737C139.579 92.6586 140.526 93.26 140.914 93.778C141.302 94.2959 141.491 95.191 141.48 96.4632C141.471 97.3879 141.355 98.0846 141.13 98.5533C140.911 99.0212 140.488 99.4477 139.86 99.8328C139.232 100.213 138.504 100.459 137.674 100.573C136.764 100.698 135.987 100.634 135.343 100.381C134.705 100.127 134.289 99.7486 134.094 99.2468C133.9 98.745 133.807 98.0076 133.815 97.0348L133.823 96.1849L136.982 95.7512L136.968 97.3307C136.964 97.8171 137.004 98.1239 137.089 98.2511C137.18 98.3775 137.338 98.4251 137.564 98.3941C137.791 98.363 137.958 98.2519 138.068 98.0607C138.182 97.8688 138.241 97.5991 138.244 97.2517C138.251 96.4873 138.15 96.0019 137.942 95.7956C137.729 95.5899 137.202 95.2699 136.361 94.8354C135.52 94.3956 134.963 94.0689 134.69 93.8554C134.418 93.6419 134.192 93.3259 134.013 92.9074C133.839 92.4881 133.755 91.9337 133.761 91.2441C133.77 90.2499 133.903 89.5056 134.16 89.0111C134.423 88.5159 134.841 88.1008 135.414 87.7659C135.987 87.4256 136.678 87.1999 137.486 87.089C138.369 86.9677 139.12 87.0062 139.737 87.2045C140.359 87.402 140.768 87.7036 140.964 88.1092C141.165 88.5087 141.261 89.2243 141.251 90.256L141.247 90.7691ZM143.301 86.5631L148.974 85.7844L148.951 88.3822L146.68 88.6939L146.659 91.1555L148.784 90.8637L148.762 93.3333L146.637 93.625L146.612 96.4794L149.109 96.1367L149.086 98.7345L143.187 99.5443L143.301 86.5631ZM158.021 88.4665L154.862 88.9003L154.87 87.9381C154.874 87.4891 154.836 87.2087 154.756 87.0968C154.677 86.985 154.543 86.942 154.354 86.9678C154.149 86.996 153.992 87.1002 153.883 87.2807C153.779 87.4605 153.726 87.7188 153.723 88.0555C153.719 88.4885 153.776 88.8064 153.892 89.0093C154.003 89.2129 154.322 89.4335 154.847 89.6711C156.353 90.356 157.3 90.9574 157.688 91.4754C158.076 91.9933 158.265 92.8884 158.254 94.1606C158.246 95.0854 158.129 95.7821 157.904 96.2507C157.685 96.7186 157.262 97.1451 156.634 97.5302C156.007 97.91 155.278 98.1568 154.449 98.2707C153.538 98.3957 152.761 98.3315 152.118 98.0781C151.48 97.824 151.063 97.446 150.869 96.9442C150.674 96.4424 150.581 95.705 150.589 94.7322L150.597 93.8823L153.756 93.4486L153.743 95.0281C153.738 95.5145 153.779 95.8213 153.864 95.9485C153.954 96.0749 154.112 96.1226 154.339 96.0915C154.565 96.0604 154.733 95.9493 154.842 95.7581C154.957 95.5662 155.015 95.2965 155.018 94.9491C155.025 94.1847 154.924 93.6993 154.716 93.493C154.503 93.2874 153.976 92.9673 153.135 92.5328C152.294 92.093 151.737 91.7664 151.465 91.5528C151.192 91.3393 150.966 91.0233 150.787 90.6048C150.613 90.1855 150.529 89.6311 150.535 88.9416C150.544 87.9473 150.677 87.203 150.934 86.7085C151.197 86.2133 151.615 85.7982 152.188 85.4633C152.761 85.123 153.452 84.8974 154.26 84.7864C155.144 84.6652 155.894 84.7037 156.511 84.9019C157.133 85.0994 157.542 85.401 157.738 85.8066C157.939 86.2062 158.035 86.9217 158.026 87.9534L158.021 88.4665Z" fill="#FFFEF0"/>
</g>
<defs>
<filter id="filter0_d" x="15.5596" y="6.03207" width="253.878" height="87.039" filterUnits="userSpaceOnUse" color-interpolation-filters="sRGB">
<feFlood flood-opacity="0" result="BackgroundImageFix"/>
<feColorMatrix in="SourceAlpha" type="matrix" values="0 0 0 0 0 0 0 0 0 0 0 0 0 0 0 0 0 0 127 0"/>
<feOffset dx="5.64978" dy="5.64978"/>
<feGaussianBlur stdDeviation="0.376652"/>
<feColorMatrix type="matrix" values="0 0 0 0 0 0 0 0 0 0 0 0 0 0 0 0 0 0 1 0"/>
<feBlend mode="normal" in2="BackgroundImageFix" result="effect1_dropShadow"/>
<feBlend mode="normal" in="SourceGraphic" in2="effect1_dropShadow" result="shape"/>
</filter>
<filter id="filter1_d" x="22.8965" y="14.4142" width="232.432" height="65.661" filterUnits="userSpaceOnUse" color-interpolation-filters="sRGB">
<feFlood flood-opacity="0" result="BackgroundImageFix"/>
<feColorMatrix in="SourceAlpha" type="matrix" values="0 0 0 0 0 0 0 0 0 0 0 0 0 0 0 0 0 0 127 0"/>
<feOffset dx="1.06468" dy="0.760488"/>
<feGaussianBlur stdDeviation="0.304195"/>
<feColorMatrix type="matrix" values="0 0 0 0 0 0 0 0 0 0 0 0 0 0 0 0 0 0 0.25 0"/>
<feBlend mode="normal" in2="BackgroundImageFix" result="effect1_dropShadow"/>
<feBlend mode="normal" in="SourceGraphic" in2="effect1_dropShadow" result="shape"/>
</filter>
<filter id="filter2_d" x="17.0596" y="75.4561" width="166.209" height="50.0586" filterUnits="userSpaceOnUse" color-interpolation-filters="sRGB">
<feFlood flood-opacity="0" result="BackgroundImageFix"/>
<feColorMatrix in="SourceAlpha" type="matrix" values="0 0 0 0 0 0 0 0 0 0 0 0 0 0 0 0 0 0 127 0"/>
<feOffset dx="2.79154" dy="2.79154"/>
<feGaussianBlur stdDeviation="0.372205"/>
<feColorMatrix type="matrix" values="0 0 0 0 0 0 0 0 0 0 0 0 0 0 0 0 0 0 0.8 0"/>
<feBlend mode="normal" in2="BackgroundImageFix" result="effect1_dropShadow"/>
<feBlend mode="normal" in="SourceGraphic" in2="effect1_dropShadow" result="shape"/>
</filter>
</defs>
</svg>
