<?xml version="1.0" encoding="UTF-8"?>
<svg width="14px" height="16px" viewBox="0 0 14 16" version="1.1" xmlns="http://www.w3.org/2000/svg" xmlns:xlink="http://www.w3.org/1999/xlink">
    <!-- Generator: Sketch 56.3 (81716) - https://sketch.com -->
    <title>unlock-alt</title>
    <desc>Created with Sketch.</desc>
    <defs>
        <path d="M13.5,8.00003077 L5.75,8.00003077 L5.75,4.77815577 C5.75,3.54065577 6.740625,2.51253077 7.978125,2.50003077 C9.228125,2.48753077 10.25,3.50315577 10.25,4.75003077 L10.25,5.25003077 C10.25,5.66565577 10.584375,6.00003077 11,6.00003077 L12,6.00003077 C12.415625,6.00003077 12.75,5.66565577 12.75,5.25003077 L12.75,4.75003077 C12.75,2.12503077 10.609375,-0.00934423379 7.984375,0 C5.359375,0.00940576621 3.25,2.17190577 3.25,4.79690577 L3.25,8.00003077 L2.5,8.00003077 C1.671875,8.00003077 1,8.67190577 1,9.50003077 L1,14.5000308 C1,15.3281558 1.671875,16.0000308 2.5,16.0000308 L13.5,16.0000308 C14.328125,16.0000308 15,15.3281558 15,14.5000308 L15,9.50003077 C15,8.67190577 14.328125,8.00003077 13.5,8.00003077 Z M9.25,12.7500308 C9.25,13.4406558 8.690625,14.0000308 8,14.0000308 C7.309375,14.0000308 6.75,13.4406558 6.75,12.7500308 L6.75,11.2500308 C6.75,10.5594058 7.309375,10.0000308 8,10.0000308 C8.690625,10.0000308 9.25,10.5594058 9.25,11.2500308 L9.25,12.7500308 Z" id="path-1"></path>
    </defs>
    <g id="Page-1" stroke="none" stroke-width="1" fill="none" fill-rule="evenodd">
        <g id="Extra-large:-Desktops---12-col" transform="translate(-1242.000000, -67.000000)">
            <g id="Solid/unlock-alt" transform="translate(1241.000000, 67.000000)">
                <mask id="mask-2" fill="white">
                    <use xlink:href="#path-1"></use>
                </mask>
                <use id="Mask" fill="#000000" fill-rule="nonzero" xlink:href="#path-1"></use>
                <g id="Color/Purple" mask="url(#mask-2)" fill="#4A4A4A" fill-rule="evenodd">
                    <rect id="Purple" x="0" y="0" width="16" height="16"></rect>
                </g>
            </g>
        </g>
    </g>
</svg>