<?xml version="1.0" encoding="UTF-8"?>
<svg width="79px" height="79px" viewBox="0 0 79 79" version="1.1" xmlns="http://www.w3.org/2000/svg" xmlns:xlink="http://www.w3.org/1999/xlink">
    <!-- Generator: Sketch 56.3 (81716) - https://sketch.com -->
    <title>Group 9</title>
    <desc>Created with Sketch.</desc>
    <defs>
        <path d="M41.2716847,9.22106018 C41.300884,9.62572835 41.300884,10.0304855 41.300884,10.4351537 C41.300884,22.7780669 31.8148743,37 14.4772089,37 C9.13579741,37 4.1738874,35.4679021 0,32.8086414 C0.758913121,32.8953051 1.48853706,32.9242227 2.27664952,32.9242227 C6.68395189,32.9242227 10.7411318,31.4500489 13.9809999,28.9351982 C9.83631186,28.8484454 6.36293892,26.1601781 5.16621549,22.4601515 C5.75002246,22.5468152 6.33373958,22.6046504 6.94674589,22.6046504 C7.79316716,22.6046504 8.63967828,22.4889801 9.42770089,22.2867349 C5.10790667,21.4194745 1.8679487,17.6617016 1.8679487,13.123421 L1.8679487,13.0078396 C3.12298095,13.7015946 4.58249837,14.1351804 6.12934426,14.1929266 C3.58999059,12.5163297 1.92634737,9.65464593 1.92634737,6.41712257 C1.92634737,4.68277955 2.39326716,3.09293545 3.21057895,1.70542544 C7.85147598,7.37104683 14.8274212,11.0709845 22.6496979,11.4757417 C22.503791,10.7819867 22.416193,10.0594031 22.416193,9.3367305 C22.416193,4.19135863 26.6192798,0 31.8438939,0 C34.5583537,0 37.0101094,1.12734076 38.7322411,2.94843653 C40.862894,2.54376835 42.9060387,1.7632606 44.7157684,0.693755005 C44.0151641,2.86177276 42.5266271,4.68286853 40.5710804,5.83903789 C42.4683182,5.63679278 44.3071574,5.11636531 46,4.3937817 C44.7159481,6.24370607 43.1105239,7.89129635 41.2716847,9.22106018 Z" id="path-1"></path>
    </defs>
    <g id="Page-1" stroke="none" stroke-width="1" fill="none" fill-rule="evenodd">
        <g id="Extra-large:-Desktops---12-col" transform="translate(-263.000000, -2186.000000)">
            <g id="Group-9" transform="translate(263.000000, 2186.000000)">
                <circle id="Oval-Copy" fill="#4A717F" cx="39.5" cy="39.5" r="39.5"></circle>
                <g id="twitter" transform="translate(17.000000, 22.000000)">
                    <mask id="mask-2" fill="white">
                        <use xlink:href="#path-1"></use>
                    </mask>
                    <use id="Mask" fill="#FFFFFF" fill-rule="nonzero" xlink:href="#path-1"></use>
                </g>
            </g>
        </g>
    </g>
</svg>