<svg width="79" height="79" viewBox="0 0 79 79" fill="none" xmlns="http://www.w3.org/2000/svg">
<path d="M39.5 79C61.3152 79 79 61.3152 79 39.5C79 17.6848 61.3152 0 39.5 0C17.6848 0 0 17.6848 0 39.5C0 61.3152 17.6848 79 39.5 79Z" fill="#3D3D3D"/>
<mask id="mask0" mask-type="alpha" maskUnits="userSpaceOnUse" x="17" y="22" width="46" height="37">
<path d="M58.2717 31.2211C58.3009 31.6257 58.3009 32.0305 58.3009 32.4352C58.3009 44.7781 48.8149 59 31.4772 59C26.1358 59 21.1739 57.4679 17 54.8086C17.7589 54.8953 18.4885 54.9242 19.2766 54.9242C23.684 54.9242 27.7411 53.45 30.981 50.9352C26.8363 50.8484 23.3629 48.1602 22.1662 44.4602C22.75 44.5468 23.3337 44.6047 23.9467 44.6047C24.7932 44.6047 25.6397 44.489 26.4277 44.2867C22.1079 43.4195 18.8679 39.6617 18.8679 35.1234V35.0078C20.123 35.7016 21.5825 36.1352 23.1293 36.1929C20.59 34.5163 18.9263 31.6546 18.9263 28.4171C18.9263 26.6828 19.3933 25.0929 20.2106 23.7054C24.8515 29.371 31.8274 33.071 39.6497 33.4757C39.5038 32.782 39.4162 32.0594 39.4162 31.3367C39.4162 26.1914 43.6193 22 48.8439 22C51.5584 22 54.0101 23.1273 55.7322 24.9484C57.8629 24.5438 59.906 23.7633 61.7158 22.6938C61.0152 24.8618 59.5266 26.6829 57.5711 27.839C59.4683 27.6368 61.3072 27.1164 63 26.3938C61.7159 28.2437 60.1105 29.8913 58.2717 31.2211Z" fill="white"/>
</mask>
<g mask="url(#mask0)">
<path d="M58.2717 31.2211C58.3009 31.6257 58.3009 32.0305 58.3009 32.4352C58.3009 44.7781 48.8149 59 31.4772 59C26.1358 59 21.1739 57.4679 17 54.8086C17.7589 54.8953 18.4885 54.9242 19.2766 54.9242C23.684 54.9242 27.7411 53.45 30.981 50.9352C26.8363 50.8484 23.3629 48.1602 22.1662 44.4602C22.75 44.5468 23.3337 44.6047 23.9467 44.6047C24.7932 44.6047 25.6397 44.489 26.4277 44.2867C22.1079 43.4195 18.8679 39.6617 18.8679 35.1234V35.0078C20.123 35.7016 21.5825 36.1352 23.1293 36.1929C20.59 34.5163 18.9263 31.6546 18.9263 28.4171C18.9263 26.6828 19.3933 25.0929 20.2106 23.7054C24.8515 29.371 31.8274 33.071 39.6497 33.4757C39.5038 32.782 39.4162 32.0594 39.4162 31.3367C39.4162 26.1914 43.6193 22 48.8439 22C51.5584 22 54.0101 23.1273 55.7322 24.9484C57.8629 24.5438 59.906 23.7633 61.7158 22.6938C61.0152 24.8618 59.5266 26.6829 57.5711 27.839C59.4683 27.6368 61.3072 27.1164 63 26.3938C61.7159 28.2437 60.1105 29.8913 58.2717 31.2211Z" fill="white"/>
</g>
</svg>
