<svg width="79" height="79" viewBox="0 0 79 79" fill="none" xmlns="http://www.w3.org/2000/svg">
<path d="M39.5 79C61.3152 79 79 61.3152 79 39.5C79 17.6848 61.3152 0 39.5 0C17.6848 0 0 17.6848 0 39.5C0 61.3152 17.6848 79 39.5 79Z" fill="#3D3D3D"/>
<mask id="mask0" mask-type="alpha" maskUnits="userSpaceOnUse" x="18" y="24" width="43" height="30">
<path d="M60.1015 28.694C59.6069 26.8463 58.1499 25.3912 56.2998 24.8973C52.9465 24 39.5 24 39.5 24C39.5 24 26.0536 24 22.7002 24.8973C20.8501 25.3913 19.3931 26.8463 18.8985 28.694C18 32.043 18 39.0303 18 39.0303C18 39.0303 18 46.0177 18.8985 49.3666C19.3931 51.2143 20.8501 52.6088 22.7002 53.1027C26.0536 54 39.5 54 39.5 54C39.5 54 52.9464 54 56.2998 53.1027C58.1499 52.6088 59.6069 51.2143 60.1015 49.3666C61 46.0177 61 39.0303 61 39.0303C61 39.0303 61 32.043 60.1015 28.694ZM35 45V32L46 38.5002L35 45Z" fill="white"/>
</mask>
<g mask="url(#mask0)">
<path d="M60.1015 28.694C59.6069 26.8463 58.1499 25.3912 56.2998 24.8973C52.9465 24 39.5 24 39.5 24C39.5 24 26.0536 24 22.7002 24.8973C20.8501 25.3913 19.3931 26.8463 18.8985 28.694C18 32.043 18 39.0303 18 39.0303C18 39.0303 18 46.0177 18.8985 49.3666C19.3931 51.2143 20.8501 52.6088 22.7002 53.1027C26.0536 54 39.5 54 39.5 54C39.5 54 52.9464 54 56.2998 53.1027C58.1499 52.6088 59.6069 51.2143 60.1015 49.3666C61 46.0177 61 39.0303 61 39.0303C61 39.0303 61 32.043 60.1015 28.694ZM35 45V32L46 38.5002L35 45Z" fill="white"/>
</g>
</svg>
