<?xml version="1.0" encoding="UTF-8"?>
<svg width="261px" height="34px" viewBox="0 0 261 34" version="1.1" xmlns="http://www.w3.org/2000/svg" xmlns:xlink="http://www.w3.org/1999/xlink">
    <!-- Generator: Sketch 56.3 (81716) - https://sketch.com -->
    <title>Group 7</title>
    <desc>Created with Sketch.</desc>
    <g id="Page-1" stroke="none" stroke-width="1" fill="none" fill-rule="evenodd">
        <g id="Extra-large:-Desktops---12-col" transform="translate(-165.000000, -58.000000)">
            <g id="Group-7" transform="translate(165.000000, 51.000000)">
                <text id="WEIBENFALK" font-family="TitilliumWeb-SemiBold, Titillium Web" font-size="32" font-weight="500" fill="#4A4A4A">
                    <tspan x="77" y="36">WEIBENFALK</tspan>
                </text>
                <g id="Group" transform="translate(0.000000, 7.000000)" fill="#7CB5C9">
                    <rect id="Rectangle" x="0" y="0" width="14" height="34"></rect>
                    <polygon id="Rectangle-Copy-3" transform="translate(20.005814, 17.652634) rotate(-315.000000) translate(-20.005814, -17.652634) " points="12.6932326 1.84654885 27.0926705 16.2459867 27.3183955 33.4587192 12.8989395 32.8699488"></polygon>
                    <polygon id="Rectangle-Copy-4" transform="translate(31.894648, 17.711782) scale(-1, 1) rotate(-315.000000) translate(-31.894648, -17.711782) " points="24.6942746 1.87713726 39.0937124 16.2765751 39.0950215 33.5464273 24.8999815 32.9005372"></polygon>
                    <rect id="Rectangle-Copy-5" x="38" y="0" width="14" height="34"></rect>
                </g>
                <rect id="Rectangle" fill="#7CB5C9" x="52" y="7" width="9" height="10"></rect>
                <rect id="Rectangle-Copy-11" fill="#7CB5C9" x="52" y="20" width="9" height="10"></rect>
                <polygon id="Path-3" fill="#49889E" points="38 40.7414234 26 8.42356453 38 20.7973633"></polygon>
            </g>
        </g>
    </g>
</svg>