<svg width="262" height="121" viewBox="0 0 262 121" fill="none" xmlns="http://www.w3.org/2000/svg">
<g filter="url(#filter0_d)">
<path d="M7.6398 36.0029C7.64187 34.868 8.5912 33.8209 9.76019 33.6641L252.922 1.05185C254.091 0.895068 255.037 1.68796 255.035 2.82283L254.955 46.6973C254.953 47.8321 254.003 48.8792 252.835 49.036L9.67253 81.6483C8.50355 81.805 7.55758 81.0121 7.55965 79.8773L7.6398 36.0029Z" fill="#2DBACD"/>
</g>
<g filter="url(#filter1_d)">
<path d="M50.9215 35.4731L46.8207 69.961L35.4603 71.4846C34.4331 66.4098 33.5296 60.6056 32.7499 54.0721C32.3847 56.958 31.5316 62.9978 30.1904 72.1914L18.8948 73.7063L14.8965 40.3047L23.7299 39.12L24.637 50.842L25.5664 62.1418C25.9084 56.1845 26.7577 48.3146 28.1143 38.532L37.5741 37.2632C37.7018 38.2383 38.0262 41.9261 38.5471 48.3266L39.5171 61.0883C40.036 52.8154 40.893 44.672 42.088 36.6578L50.9215 35.4731Z" fill="#FFFEF0"/>
<path d="M54.5049 34.9925L69.6665 32.9591L69.6541 39.7525L63.5852 40.5665L63.5734 47.0034L69.2536 46.2416L69.2418 52.6996L63.5616 53.4614L63.548 60.9258L70.2217 60.0307L70.2093 66.8242L54.4429 68.9387L54.5049 34.9925Z" fill="#FFFEF0"/>
<path d="M83.7681 31.0678L83.7061 65.014L74.6135 66.2335L74.6755 32.2873L83.7681 31.0678Z" fill="#FFFEF0"/>
<path d="M89.1874 30.341L98.2584 29.1244C101.124 28.7401 103.29 28.6661 104.758 28.9025C106.24 29.1369 107.434 29.8573 108.339 31.0635C109.243 32.2558 109.693 34.3197 109.688 37.2551C109.684 39.2401 109.357 40.6674 108.708 41.537C108.073 42.4048 106.812 43.1748 104.925 43.8471C107.027 44.0265 108.451 44.6041 109.197 45.58C109.944 46.542 110.315 48.1272 110.311 50.3358L110.306 53.4809C110.302 55.7733 110.025 57.5084 109.476 58.686C108.941 59.8618 108.083 60.7315 106.901 61.2952C105.72 61.8589 103.301 62.386 99.6435 62.8765L89.1254 64.2872L89.1874 30.341ZM98.2694 34.9295L98.2556 42.4777C98.6444 42.4116 98.9468 42.3641 99.1628 42.3351C100.055 42.2154 100.625 41.9294 100.87 41.4772C101.116 41.0111 101.24 39.7716 101.244 37.7587C101.246 36.6964 101.147 35.969 100.946 35.5767C100.745 35.1704 100.479 34.9336 100.148 34.8662C99.8315 34.7968 99.2053 34.8179 98.2694 34.9295ZM98.246 47.7615L98.2286 57.2597C99.5102 57.0459 100.324 56.7411 100.67 56.3453C101.031 55.9476 101.212 55.0638 101.215 53.6939L101.221 50.5279C101.223 49.0741 101.067 48.2147 100.75 47.9497C100.434 47.6846 99.5994 47.6219 98.246 47.7615Z" fill="#FFFEF0"/>
<path d="M115.405 26.8247L130.567 24.7913L130.554 31.5847L124.486 32.3987L124.474 38.8356L130.154 38.0738L130.142 44.5318L124.462 45.2936L124.448 52.758L131.122 51.8629L131.11 58.6564L115.343 60.7709L115.405 26.8247Z" fill="#FFFEF0"/>
<path d="M155.878 21.3966L155.816 55.3429L147.846 56.4117L143.144 41.6141L143.116 57.0461L135.514 58.0657L135.576 24.1195L143.178 23.0999L148.247 37.7015L148.275 22.4163L155.878 21.3966Z" fill="#FFFEF0"/>
<path d="M161.319 20.6669L176.718 18.6016L176.705 25.3951L170.399 26.2409L170.387 32.6779L176.002 31.9248L175.991 38.3827L170.375 39.1358L170.349 53.3937L161.257 54.6131L161.319 20.6669Z" fill="#FFFEF0"/>
<path d="M196.413 15.9601L201.556 49.2083L192.248 50.4567L191.805 44.416L188.544 44.8534L187.993 51.0273L178.576 52.2903L183.26 17.7242L196.413 15.9601ZM191.557 38.4331C191.103 34.6509 190.651 29.9671 190.201 24.3817C189.267 30.9912 188.683 35.814 188.447 38.8503L191.557 38.4331Z" fill="#FFFEF0"/>
<path d="M214.035 13.5967L213.985 40.7495L219.514 40.008L219.502 46.8014L204.88 48.7624L204.942 14.8162L214.035 13.5967Z" fill="#FFFEF0"/>
<path d="M245.22 9.41422L239.987 25.4395L245.655 43.2938L236.26 44.5538L232.615 30.4949L232.589 45.0463L223.496 46.2658L223.558 12.3195L232.651 11.1001L232.626 24.2885L236.689 10.5584L245.22 9.41422Z" fill="#FFFEF0"/>
</g>
<g filter="url(#filter2_d)">
<path d="M9.24669 94.0597C9.25391 93.221 9.94493 92.4472 10.7901 92.3314L157.531 72.2102C158.376 72.0943 159.055 72.6802 159.048 73.5188L158.862 95.1147C158.855 95.9533 158.164 96.7271 157.319 96.843L10.5779 116.964C9.73274 117.08 9.05343 116.494 9.06065 115.656L9.24669 94.0597Z" fill="#3D3D3D"/>
<path d="M17.3638 96.7522L20.79 96.2819C21.7166 96.1547 22.4271 96.1292 22.9214 96.2055C23.4212 96.2811 23.7937 96.4381 24.0392 96.6767C24.29 96.9146 24.4568 97.2227 24.5395 97.6011C24.6277 97.9734 24.6683 98.5658 24.6611 99.3783L24.6512 100.509C24.644 101.337 24.5525 101.953 24.3767 102.356C24.201 102.76 23.8806 103.095 23.4156 103.361C22.9559 103.627 22.3543 103.811 21.6109 103.913L20.6978 104.039L20.6519 109.266L17.2499 109.733L17.3638 96.7522ZM20.7463 98.5062L20.7173 101.81C20.8142 101.802 20.8977 101.793 20.9678 101.783C21.2802 101.74 21.4964 101.636 21.6162 101.47C21.7414 101.298 21.8062 100.971 21.8104 100.49L21.8198 99.4239C21.8237 98.9803 21.7562 98.7012 21.6173 98.5868C21.4784 98.4724 21.1881 98.4455 20.7463 98.5062Z" fill="#FFFEF0"/>
<path d="M26.3327 95.521L28.7408 95.1905C30.3462 94.9701 31.4311 94.8826 31.9957 94.9279C32.5656 94.9724 33.0262 95.2242 33.3773 95.6832C33.7338 96.1361 33.9072 96.9158 33.8975 98.0223C33.8886 99.0326 33.7561 99.7288 33.4998 100.111C33.2436 100.493 32.7435 100.77 31.9994 100.942C32.6714 101.015 33.1219 101.175 33.3511 101.421C33.5804 101.667 33.7209 101.904 33.7727 102.132C33.8299 102.353 33.8539 102.988 33.8447 104.036L33.8147 107.46L30.6552 107.893L30.693 103.58C30.6991 102.885 30.6463 102.462 30.5346 102.312C30.4283 102.161 30.1409 102.118 29.6722 102.182L29.6208 108.035L26.2189 108.502L26.3327 95.521ZM29.7152 97.275L29.6899 100.162C30.0724 100.109 30.3395 100.022 30.4912 99.8994C30.6484 99.771 30.7295 99.4208 30.7345 98.8489L30.7408 98.1353C30.7444 97.7237 30.6713 97.4641 30.5216 97.3565C30.3773 97.2482 30.1085 97.221 29.7152 97.275Z" fill="#FFFEF0"/>
<path d="M35.9158 94.2056L41.5884 93.4269L41.5657 96.0247L39.295 96.3364L39.2734 98.7979L41.3986 98.5062L41.3769 100.976L39.2517 101.267L39.2267 104.122L41.7236 103.779L41.7008 106.377L35.8019 107.187L35.9158 94.2056Z" fill="#FFFEF0"/>
<path d="M53.9593 91.7287L53.8455 104.71L50.8718 105.118L50.9486 96.3544L49.6839 105.281L47.5748 105.571L46.3975 97.1794L46.3223 105.743L43.3486 106.151L43.4625 93.1696L47.8665 92.5651C47.9889 93.3278 48.1182 94.2283 48.2544 95.2667L48.6941 98.5058L49.523 92.3377L53.9593 91.7287Z" fill="#FFFEF0"/>
<path d="M59.3889 90.9834L59.275 103.965L55.8731 104.432L55.9869 91.4504L59.3889 90.9834Z" fill="#FFFEF0"/>
<path d="M69.1497 89.6436L69.0736 98.3191C69.065 99.3026 69.0266 99.9993 68.9585 100.409C68.8903 100.813 68.6955 101.249 68.374 101.715C68.0525 102.175 67.6295 102.551 67.105 102.842C66.586 103.127 65.9736 103.317 65.2679 103.414C64.4867 103.521 63.7983 103.488 63.2026 103.313C62.6069 103.139 62.1627 102.866 61.87 102.495C61.5773 102.124 61.406 101.715 61.3561 101.268C61.3063 100.816 61.2878 99.8576 61.3007 98.393L61.368 90.7117L64.77 90.2448L64.6846 99.9786C64.6796 100.545 64.7061 100.905 64.7639 101.057C64.8272 101.203 64.9531 101.263 65.1417 101.237C65.3572 101.208 65.4953 101.103 65.5561 100.924C65.6222 100.739 65.6582 100.323 65.6639 99.6761L65.7478 90.1105L69.1497 89.6436Z" fill="#FFFEF0"/>
<path d="M81.6257 87.931L81.5118 100.912L78.5381 101.32L78.615 92.5567L77.3502 101.483L75.2412 101.773L74.0638 93.3816L73.9887 101.945L71.015 102.353L71.1289 89.3719L75.5328 88.7674C75.6553 89.53 75.7846 90.4306 75.9208 91.469L76.3605 94.7081L77.1894 88.54L81.6257 87.931Z" fill="#FFFEF0"/>
<path d="M95.1341 91.7306L91.7322 92.1976L91.752 89.9365C91.7578 89.279 91.7236 88.8753 91.6496 88.7253C91.5811 88.5692 91.4229 88.5082 91.1751 88.5422C90.8949 88.5806 90.7163 88.7039 90.6391 88.9121C90.562 89.1202 90.5205 89.553 90.5147 90.2105L90.4618 96.24C90.4563 96.8708 90.4904 97.2772 90.5641 97.4593C90.6379 97.6413 90.8067 97.7143 91.0707 97.678C91.3239 97.6433 91.489 97.5245 91.5661 97.3217C91.6486 97.1182 91.693 96.661 91.6992 95.95L91.7135 94.3224L95.1155 93.8554L95.1111 94.3605C95.0993 95.7022 94.994 96.667 94.7951 97.2549C94.6016 97.842 94.1744 98.3918 93.5135 98.9043C92.858 99.4161 92.0507 99.7378 91.0918 99.8694C90.0952 100.006 89.2752 99.9399 88.6319 99.6705C87.9886 99.4011 87.5647 98.9655 87.3601 98.3636C87.1556 97.7563 87.0589 96.8166 87.0701 95.5444L87.1033 91.7519C87.1116 90.8164 87.15 90.1118 87.2187 89.6378C87.2875 89.1586 87.4827 88.6806 87.8044 88.204C88.1314 87.7267 88.5788 87.3263 89.1466 87.0027C89.7198 86.6731 90.3755 86.4576 91.1135 86.3563C92.1155 86.2188 92.9408 86.2977 93.5892 86.5931C94.2377 86.8885 94.6617 87.3108 94.8614 87.86C95.0611 88.4038 95.1556 89.2824 95.145 90.4958L95.1341 91.7306Z" fill="#FFFEF0"/>
<path d="M104.773 92.3455C104.761 93.6498 104.721 94.579 104.652 95.1331C104.588 95.6811 104.389 96.2022 104.057 96.6963C103.73 97.1897 103.288 97.5947 102.731 97.9114C102.174 98.2281 101.526 98.4371 100.788 98.5384C100.088 98.6346 99.4584 98.6088 98.9001 98.4612C98.3472 98.3076 97.9031 98.0268 97.5677 97.6191C97.2323 97.2113 97.0346 96.7446 96.9747 96.2189C96.9147 95.6933 96.8906 94.7623 96.9023 93.4259L96.9218 91.2049C96.9332 89.9007 96.971 88.9745 97.0349 88.4265C97.1044 87.8724 97.3027 87.3487 97.6298 86.8553C97.9624 86.3612 98.4072 85.9558 98.9641 85.6391C99.5211 85.3224 100.169 85.1133 100.907 85.012C101.607 84.9159 102.234 84.9447 102.786 85.0984C103.345 85.246 103.792 85.5236 104.127 85.9314C104.462 86.3392 104.66 86.8059 104.72 87.3315C104.78 87.8572 104.804 88.7882 104.792 90.1245L104.773 92.3455ZM101.408 88.5469C101.414 87.9429 101.382 87.5629 101.313 87.4068C101.25 87.2446 101.114 87.1779 100.904 87.2068C100.726 87.2312 100.588 87.3195 100.49 87.4718C100.397 87.618 100.348 88.0252 100.342 88.6934L100.289 94.755C100.282 95.5087 100.307 95.9697 100.365 96.1379C100.428 96.3054 100.573 96.3737 100.799 96.3426C101.031 96.3108 101.18 96.1889 101.246 95.9769C101.313 95.7649 101.349 95.2767 101.356 94.5123L101.408 88.5469Z" fill="#FFFEF0"/>
<path d="M114.512 83.4168L114.435 92.0923C114.427 93.0758 114.388 93.7725 114.32 94.1823C114.252 94.5867 114.057 95.0219 113.736 95.4878C113.414 95.9484 112.991 96.3241 112.467 96.615C111.948 96.8998 111.335 97.0906 110.63 97.1875C109.849 97.2947 109.16 97.2611 108.564 97.0866C107.969 96.9121 107.524 96.6394 107.232 96.2685C106.939 95.8975 106.768 95.4886 106.718 95.0416C106.668 94.5893 106.65 93.6309 106.662 92.1663L106.73 84.485L110.132 84.018L110.046 93.7519C110.041 94.3185 110.068 94.6779 110.126 94.8301C110.189 94.9763 110.315 95.0364 110.503 95.0105C110.719 94.9809 110.857 94.8766 110.918 94.6974C110.984 94.5121 111.02 94.0961 111.026 93.4493L111.11 83.8838L114.512 83.4168Z" fill="#FFFEF0"/>
<path d="M116.491 83.1451L118.899 82.8146C120.504 82.5942 121.589 82.5067 122.154 82.552C122.724 82.5965 123.184 82.8483 123.535 83.3073C123.892 83.7602 124.065 84.5399 124.055 85.6464C124.047 86.6567 123.914 87.3529 123.658 87.7351C123.402 88.1173 122.901 88.3942 122.157 88.5657C122.829 88.639 123.28 88.7987 123.509 89.0449C123.738 89.291 123.879 89.528 123.931 89.7558C123.988 89.9775 124.012 90.6122 124.003 91.6599L123.973 95.0836L120.813 95.5173L120.851 91.2036C120.857 90.5087 120.804 90.0862 120.693 89.936C120.586 89.7851 120.299 89.7418 119.83 89.8062L119.779 95.6593L116.377 96.1263L116.491 83.1451ZM119.873 84.8991L119.848 87.7856C120.23 87.7331 120.497 87.6457 120.649 87.5235C120.806 87.3951 120.887 87.045 120.892 86.473L120.899 85.7594C120.902 85.3478 120.829 85.0882 120.68 84.9806C120.535 84.8723 120.266 84.8451 119.873 84.8991Z" fill="#FFFEF0"/>
<path d="M133.247 84.7691L130.088 85.2028L130.096 84.2406C130.1 83.7916 130.062 83.5112 129.982 83.3993C129.903 83.2875 129.769 83.2445 129.58 83.2704C129.375 83.2985 129.218 83.4028 129.109 83.5833C129.005 83.763 128.952 84.0213 128.949 84.358C128.945 84.791 129.002 85.1089 129.118 85.3118C129.229 85.5155 129.548 85.7361 130.073 85.9736C131.579 86.6585 132.526 87.2599 132.914 87.7779C133.302 88.2959 133.491 89.1909 133.48 90.4631C133.472 91.3879 133.355 92.0846 133.13 92.5532C132.911 93.0211 132.488 93.4476 131.86 93.8327C131.233 94.2125 130.504 94.4593 129.675 94.5732C128.764 94.6982 127.987 94.634 127.344 94.3806C126.706 94.1265 126.289 93.7486 126.095 93.2467C125.9 92.7449 125.807 92.0076 125.815 91.0347L125.823 90.1848L128.982 89.7511L128.969 91.3306C128.964 91.8171 129.005 92.1239 129.09 92.251C129.18 92.3774 129.338 92.4251 129.565 92.394C129.791 92.363 129.959 92.2518 130.068 92.0607C130.183 91.8687 130.241 91.599 130.244 91.2516C130.251 90.4872 130.15 90.0018 129.942 89.7955C129.729 89.5899 129.202 89.2698 128.361 88.8354C127.52 88.3955 126.963 88.0689 126.691 87.8554C126.418 87.6418 126.192 87.3258 126.013 86.9073C125.839 86.488 125.755 85.9336 125.761 85.2441C125.77 84.2498 125.903 83.5055 126.16 83.011C126.423 82.5158 126.841 82.1008 127.414 81.7658C127.987 81.4255 128.678 81.1999 129.486 81.089C130.37 80.9677 131.12 81.0062 131.737 81.2044C132.359 81.402 132.768 81.7035 132.964 82.1091C133.165 82.5087 133.261 83.2243 133.252 84.2559L133.247 84.7691Z" fill="#FFFEF0"/>
<path d="M135.301 80.563L140.974 79.7843L140.951 82.3822L138.68 82.6939L138.659 85.1554L140.784 84.8637L140.762 87.3332L138.637 87.625L138.612 90.4794L141.109 90.1366L141.086 92.7345L135.187 93.5442L135.301 80.563Z" fill="#FFFEF0"/>
<path d="M150.021 82.4665L146.862 82.9002L146.87 81.938C146.874 81.489 146.836 81.2086 146.757 81.0967C146.677 80.9849 146.543 80.9419 146.354 80.9678C146.15 80.9959 145.993 81.1002 145.883 81.2807C145.78 81.4604 145.726 81.7187 145.723 82.0554C145.719 82.4884 145.776 82.8064 145.892 83.0092C146.004 83.2129 146.322 83.4335 146.847 83.671C148.353 84.3559 149.3 84.9573 149.688 85.4753C150.077 85.9933 150.265 86.8884 150.254 88.1605C150.246 89.0853 150.129 89.782 149.905 90.2506C149.685 90.7185 149.262 91.145 148.634 91.5302C148.007 91.9099 147.278 92.1568 146.449 92.2706C145.538 92.3956 144.761 92.3314 144.118 92.078C143.48 91.8239 143.064 91.446 142.869 90.9441C142.674 90.4423 142.581 89.705 142.59 88.7321L142.597 87.8822L145.757 87.4485L145.743 89.0281C145.738 89.5145 145.779 89.8213 145.864 89.9484C145.954 90.0748 146.112 90.1225 146.339 90.0914C146.565 90.0604 146.733 89.9493 146.842 89.7581C146.957 89.5661 147.016 89.2965 147.019 88.949C147.025 88.1846 146.925 87.6993 146.717 87.4929C146.503 87.2873 145.976 86.9672 145.135 86.5328C144.294 86.093 143.737 85.7663 143.465 85.5528C143.192 85.3393 142.967 85.0232 142.787 84.6047C142.613 84.1855 142.529 83.631 142.535 82.9415C142.544 81.9473 142.677 81.2029 142.934 80.7085C143.197 80.2133 143.615 79.7982 144.188 79.4632C144.762 79.1229 145.452 78.8973 146.26 78.7864C147.144 78.6651 147.894 78.7036 148.511 78.9019C149.134 79.0994 149.543 79.4009 149.738 79.8066C149.939 80.2061 150.035 80.9217 150.026 81.9533L150.021 82.4665Z" fill="#FFFEF0"/>
</g>
<defs>
<filter id="filter0_d" x="7.55957" y="1.03207" width="253.878" height="87.039" filterUnits="userSpaceOnUse" color-interpolation-filters="sRGB">
<feFlood flood-opacity="0" result="BackgroundImageFix"/>
<feColorMatrix in="SourceAlpha" type="matrix" values="0 0 0 0 0 0 0 0 0 0 0 0 0 0 0 0 0 0 127 0"/>
<feOffset dx="5.64978" dy="5.64978"/>
<feGaussianBlur stdDeviation="0.376652"/>
<feColorMatrix type="matrix" values="0 0 0 0 0 0 0 0 0 0 0 0 0 0 0 0 0 0 1 0"/>
<feBlend mode="normal" in2="BackgroundImageFix" result="effect1_dropShadow"/>
<feBlend mode="normal" in="SourceGraphic" in2="effect1_dropShadow" result="shape"/>
</filter>
<filter id="filter1_d" x="14.8965" y="9.41422" width="232.432" height="65.661" filterUnits="userSpaceOnUse" color-interpolation-filters="sRGB">
<feFlood flood-opacity="0" result="BackgroundImageFix"/>
<feColorMatrix in="SourceAlpha" type="matrix" values="0 0 0 0 0 0 0 0 0 0 0 0 0 0 0 0 0 0 127 0"/>
<feOffset dx="1.06468" dy="0.760488"/>
<feGaussianBlur stdDeviation="0.304195"/>
<feColorMatrix type="matrix" values="0 0 0 0 0 0 0 0 0 0 0 0 0 0 0 0 0 0 0.25 0"/>
<feBlend mode="normal" in2="BackgroundImageFix" result="effect1_dropShadow"/>
<feBlend mode="normal" in="SourceGraphic" in2="effect1_dropShadow" result="shape"/>
</filter>
<filter id="filter2_d" x="9.06055" y="72.1956" width="153.524" height="48.3192" filterUnits="userSpaceOnUse" color-interpolation-filters="sRGB">
<feFlood flood-opacity="0" result="BackgroundImageFix"/>
<feColorMatrix in="SourceAlpha" type="matrix" values="0 0 0 0 0 0 0 0 0 0 0 0 0 0 0 0 0 0 127 0"/>
<feOffset dx="2.79154" dy="2.79154"/>
<feGaussianBlur stdDeviation="0.372205"/>
<feColorMatrix type="matrix" values="0 0 0 0 0.176471 0 0 0 0 0.729412 0 0 0 0 0.803922 0 0 0 1 0"/>
<feBlend mode="normal" in2="BackgroundImageFix" result="effect1_dropShadow"/>
<feBlend mode="normal" in="SourceGraphic" in2="effect1_dropShadow" result="shape"/>
</filter>
</defs>
</svg>
